<svg width="874" height="625" viewBox="0 0 874 625" fill="none" xmlns="http://www.w3.org/2000/svg">
<path style="mix-blend-mode:color-dodge" opacity="0.86" d="M568.152 -98.5917C568.183 -95.5424 570.787 -93.0882 573.959 -93.1199C576.852 -93.1487 579.209 -95.2443 579.579 -97.9265L651.116 -98.6397L668.611 -69.969L525.692 -68.5442L509.826 -94.482C510.818 -95.3619 511.444 -96.6128 511.43 -98.0113C511.403 -100.634 509.169 -102.739 506.442 -102.712C503.714 -102.685 501.523 -100.536 501.55 -97.9128C501.566 -96.3622 502.365 -95.0067 503.567 -94.1524L488.325 -68.1753L380.806 -67.1034L362.271 -97.3201L289.986 -96.5994C289.561 -99.2737 287.162 -101.322 284.268 -101.293C281.097 -101.261 278.543 -98.7558 278.574 -95.7065C278.605 -92.6572 281.209 -90.203 284.38 -90.2346C287.274 -90.2635 289.631 -92.3591 290.001 -95.0414L361.349 -95.7527L395.403 -40.2347C394.451 -39.5073 393.789 -38.4638 393.592 -37.2598L330.817 -36.6339C330.407 -38.88 328.369 -40.5793 325.918 -40.5566C323.19 -40.5294 320.999 -38.3799 321.026 -35.7572C321.041 -34.2956 321.756 -33.0117 322.845 -32.1507L307.547 -5.99861L236.068 -5.28603C235.831 -7.93444 233.525 -10.0113 230.717 -9.9833C228.865 -9.96486 227.241 -9.03784 226.296 -7.64649C225.553 -6.75607 225.095 -5.63668 225.108 -4.40881C225.136 -1.58209 227.552 0.694043 230.491 0.664744C232.104 0.648691 233.528 -0.0741472 234.495 -1.17638C235.32 -1.95258 235.871 -2.98015 236.041 -4.12822L306.868 -4.83437L290.196 23.6613L222.112 24.3401C221.42 22.5012 219.6 21.1856 217.447 21.2071C214.727 21.2342 212.542 23.3781 212.568 25.9934C212.581 27.1916 213.068 28.2645 213.836 29.0916L198.546 55.1304L128.948 55.789L161.232 0.735647C161.981 1.11033 162.822 1.34123 163.723 1.33039C166.663 1.3011 169.031 -1.02271 169.003 -3.84944C168.974 -6.67615 166.559 -8.95229 163.619 -8.92299C160.679 -8.89368 158.311 -6.56988 158.339 -3.74316C158.356 -2.06271 159.228 -0.59108 160.538 0.330789L128.01 55.7983L91.4183 56.1446L91.4262 56.9237L127.552 56.582L74.2337 147.505L74.118 147.701L91.9061 176.714L57.1775 177.06L57.1854 177.839L92.3808 177.488L127.278 234.412L95.1499 234.732L95.1578 235.511L127.753 235.186L127.988 235.184L163.627 234.828L199.176 292.828C197.781 293.766 196.871 295.326 196.891 297.082C196.9 297.935 197.147 298.727 197.542 299.433C198.352 301.317 200.283 302.641 202.528 302.619C205.476 302.589 207.85 300.26 207.821 297.426C207.81 296.35 207.453 295.356 206.852 294.536C205.93 292.957 204.183 291.884 202.171 291.902C201.345 291.911 200.577 292.113 199.882 292.443L164.565 234.819L198.314 234.482L216.291 263.71C215.557 264.547 215.105 265.616 215.117 266.796C215.143 269.411 217.371 271.511 220.091 271.484C222.24 271.462 224.036 270.113 224.692 268.259L359.791 266.912C360.2 267.998 361.002 268.89 362.041 269.44L346.949 295.195L239.087 296.27C238.925 295.387 238.525 294.595 237.959 293.929C236.998 292.509 235.335 291.57 233.446 291.591C230.507 291.62 228.138 293.944 228.167 296.77C228.179 297.931 228.608 298.986 229.298 299.842C230.248 301.33 231.947 302.327 233.891 302.308C236.699 302.28 238.962 300.158 239.145 297.505L346.225 296.437L329.122 325.625L257.875 326.336C257.443 323.669 255.049 321.63 252.16 321.659C248.988 321.69 246.435 324.196 246.466 327.245C246.497 330.295 249.101 332.749 252.272 332.717C255.173 332.688 257.53 330.585 257.895 327.894L329.605 327.179L347.845 356.79L383.11 356.438L366.182 385.207L294.683 386.338C294.256 383.665 291.859 381.619 288.965 381.648C285.794 381.679 283.24 384.185 283.271 387.234C283.302 390.284 285.907 392.738 289.078 392.706C291.971 392.677 294.33 390.58 294.699 387.896L367.135 386.749L384.982 356.418L419.873 356.07L435.807 382.005C434.676 382.887 433.945 384.222 433.962 385.73C433.989 388.353 436.223 390.458 438.95 390.431C441.4 390.406 443.402 388.667 443.769 386.411L506.548 385.785C506.966 388.024 508.999 389.716 511.445 389.691C514.173 389.664 516.364 387.515 516.337 384.892C516.322 383.434 515.613 382.156 514.532 381.295L529.998 354.97L565.799 354.613L601.246 293.891L708.626 292.821L691.593 322.008L620.11 322.721C619.686 320.046 617.286 317.998 614.393 318.027C611.222 318.059 608.668 320.564 608.699 323.614C608.73 326.663 611.334 329.117 614.505 329.085C617.399 329.057 619.756 326.961 620.126 324.279L692.546 323.557L726.421 265.516C726.784 265.594 727.157 265.644 727.547 265.64C729.553 265.62 731.258 264.449 732.016 262.791L867.955 261.441C868.747 263.084 870.475 264.221 872.481 264.201C875.209 264.173 877.4 262.024 877.373 259.401C877.361 258.173 876.852 257.073 876.05 256.237L908.889 200.269L942.034 143.614C942.575 143.803 943.151 143.916 943.76 143.91C946.488 143.883 948.679 141.733 948.652 139.11C948.625 136.488 946.391 134.382 943.664 134.41C943.054 134.416 942.475 134.542 941.939 134.742L873.164 22.7761C874.251 21.8934 874.949 20.5861 874.934 19.1134C874.908 16.4906 872.674 14.3852 869.946 14.4125C867.5 14.4368 865.502 16.1689 865.129 18.4153L802.608 19.0386C802.198 16.7926 800.161 15.0934 797.709 15.116C797.038 15.1227 796.401 15.2607 795.82 15.5002L763.936 -36.7022C764.895 -37.5799 765.496 -38.8102 765.482 -40.1828C765.456 -42.8055 763.222 -44.9109 760.494 -44.8837C758.044 -44.8592 756.042 -43.1197 755.676 -40.8641L693.097 -40.2402C692.686 -42.4862 690.649 -44.1855 688.198 -44.1629C687.577 -44.1567 686.991 -44.0284 686.444 -43.8208L652.275 -99.8143L652.038 -100.203L579.564 -99.4808C579.139 -102.155 576.74 -104.203 573.846 -104.174C570.675 -104.143 568.121 -101.637 568.152 -98.588L568.152 -98.5917ZM284.367 -91.7909C282.09 -91.7682 280.219 -93.5322 280.196 -95.7208C280.174 -97.9095 282.01 -99.7105 284.286 -99.7331C286.562 -99.7559 288.434 -97.9919 288.456 -95.8032C288.478 -93.6146 286.643 -91.8136 284.367 -91.7909ZM490.194 -68.1921L505.016 -93.449C505.497 -93.3036 506.004 -93.2048 506.538 -93.2119C507.229 -93.2188 507.883 -93.3626 508.475 -93.6134L523.821 -68.5255L490.196 -68.1903L490.194 -68.1921ZM159.155 -3.7494C159.131 -6.14579 161.138 -8.1154 163.633 -8.14213C166.125 -8.16699 168.174 -6.23595 168.198 -3.83956C168.222 -1.44316 166.213 0.528317 163.721 0.553176C161.229 0.578036 159.18 -1.35301 159.155 -3.7494ZM206.187 294.979C206.525 295.58 206.739 296.255 206.746 296.986C206.77 299.382 204.761 301.354 202.269 301.378C200.552 301.396 199.065 300.476 198.285 299.124C198.076 298.629 197.947 298.092 197.943 297.526C197.919 295.122 199.934 293.145 202.434 293.12C203.981 293.105 205.356 293.842 206.185 294.977L206.187 294.979ZM289.064 391.15C286.788 391.173 284.916 389.409 284.894 387.22C284.871 385.031 286.707 383.23 288.983 383.208C291.259 383.185 293.131 384.949 293.153 387.138C293.176 389.326 291.34 391.127 289.064 391.15ZM528.125 354.995L513.133 380.509C512.575 380.307 511.978 380.189 511.345 380.195C508.888 380.219 506.884 381.968 506.525 384.231L443.749 384.857C443.339 382.611 441.3 380.91 438.85 380.934C438.271 380.94 437.726 381.059 437.213 381.24L421.74 356.055L528.121 354.995L528.125 354.995ZM614.486 327.531C612.209 327.554 610.338 325.79 610.315 323.601C610.293 321.412 612.129 319.612 614.405 319.589C616.681 319.566 618.553 321.33 618.575 323.519C618.597 325.707 616.762 327.508 614.486 327.531ZM252.256 331.159C249.98 331.182 248.108 329.418 248.086 327.229C248.064 325.041 249.899 323.24 252.175 323.217C254.452 323.194 256.323 324.958 256.346 327.147C256.368 329.335 254.532 331.136 252.256 331.159ZM385.441 355.638L400.482 330.076C401.071 330.308 401.718 330.433 402.395 330.428C402.939 330.423 403.455 330.314 403.943 330.15L419.395 355.299L385.441 355.638ZM600.306 293.906L565.319 353.845L530.455 354.192L547.835 324.615L565.651 294.252L600.306 293.906ZM491.184 294.992L476.224 320.49C475.696 320.311 475.131 320.198 474.537 320.204C473.912 320.21 473.32 320.339 472.772 320.55L457.293 295.33L491.188 294.992L491.184 294.992ZM383.715 296.064L383.947 296.061L455.418 295.349L471.385 321.363C470.314 322.246 469.629 323.544 469.642 325.004C469.668 327.626 471.902 329.732 474.63 329.705C477.358 329.677 479.548 327.528 479.522 324.905C479.507 323.414 478.762 322.106 477.637 321.247L493.052 294.974L563.778 294.268L546.423 323.847L528.582 354.209L421.264 355.279L405.369 329.406C406.541 328.527 407.301 327.167 407.285 325.627C407.258 323.004 405.024 320.899 402.297 320.926C399.569 320.953 397.378 323.103 397.405 325.726C397.419 327.135 398.084 328.383 399.109 329.242L383.566 355.657L348.298 356.008L330.297 326.784L348.09 296.421L383.71 296.066L383.715 296.064ZM233.918 -1.71968C233.114 -0.967837 232.023 -0.493222 230.815 -0.481222C228.315 -0.456284 226.26 -2.39281 226.236 -4.79665C226.227 -5.68695 226.5 -6.52065 226.974 -7.21729C227.795 -8.16966 229.012 -8.79395 230.395 -8.8096C232.887 -8.83442 234.936 -6.90342 234.961 -4.50702C234.971 -3.4461 234.57 -2.48303 233.92 -1.72157L233.918 -1.71968ZM381.149 -6.53581L381.029 -6.72941L309.42 -6.01546L324.25 -31.3634C324.802 -31.1667 325.395 -31.0483 326.02 -31.0545C328.47 -31.079 330.474 -32.8204 330.839 -35.0741L393.614 -35.6999C394.025 -33.4539 396.062 -31.751 398.513 -31.7773C399.173 -31.7839 399.795 -31.9181 400.367 -32.1501L432.285 19.8851C431.214 20.7676 430.526 22.0637 430.541 23.5253C430.568 26.148 432.802 28.2534 435.53 28.2262C438.257 28.199 440.448 26.0495 440.421 23.4268C440.406 21.9356 439.664 20.6296 438.536 19.769L454.077 -6.68043L626.404 -8.39849L634.009 -8.5281L652.099 20.5373L512.822 21.9259C512.411 19.6799 510.372 17.9788 507.923 18.0032C505.195 18.0304 503.004 20.1799 503.031 22.8026C503.045 24.2456 503.741 25.5149 504.807 26.3762L489.323 52.71L417.892 53.5372L381.151 -6.53769L381.149 -6.53581ZM491.194 52.6914L506.195 27.1804C506.76 27.3899 507.373 27.5118 508.017 27.5054C510.467 27.481 512.469 25.7414 512.836 23.4858L720.204 21.4184C720.419 22.5868 721.073 23.5931 721.997 24.298L706.574 50.5459L634.844 51.2017L526.233 52.2845L491.192 52.6895L491.194 52.6914ZM367.217 24.4534C367.191 21.8381 364.962 19.7383 362.243 19.7654C360.094 19.7868 358.296 21.1385 357.644 22.9926L292.067 23.6463L308.739 -4.84928L379.828 -5.55809L434.338 83.5743L400.543 83.8853L366.009 27.5837C366.764 26.7414 367.229 25.6553 367.217 24.4571L367.217 24.4534ZM829.546 79.1445L766.62 79.7718C766.209 77.5258 764.172 75.8228 761.721 75.8491C758.993 75.8763 756.802 78.0258 756.829 80.6485C756.844 82.1695 757.614 83.4974 758.778 84.3557L743.392 110.579L708.547 110.927L692.653 85.0503C693.813 84.1706 694.565 82.8145 694.549 81.2861C694.534 79.7504 693.748 78.4078 692.565 77.5496L707.982 51.311L851.522 49.9968L836.489 75.5804C835.842 75.2901 835.124 75.1173 834.362 75.123C831.913 75.1475 829.911 76.887 829.544 79.1426L829.546 79.1445ZM437.66 204.735L468.591 204.451C468.653 205.675 469.184 206.777 470.025 207.584L454.475 234.084L420.208 234.405L437.656 204.735L437.66 204.735ZM419.061 233.053L401.882 205.066L435.704 204.755L419.061 233.053ZM470.661 208.088C471.481 208.648 472.478 208.981 473.558 208.97C474.106 208.965 474.62 208.854 475.11 208.691L490.502 233.749L455.411 234.077L470.659 208.086L470.661 208.088ZM476.538 207.95C477.505 207.222 478.179 206.168 478.377 204.951L613.495 203.604C613.913 205.842 615.946 207.534 618.392 207.51C621.12 207.482 623.311 205.333 623.284 202.71C623.269 201.223 622.53 199.917 621.404 199.058L636.865 172.706L671.501 172.36L636.447 232.251L528.073 233.399L492.372 233.732L476.534 207.95L476.538 207.95ZM619.99 198.295C619.458 198.113 618.892 198.001 618.298 198.007C615.84 198.032 613.836 199.781 613.477 202.044L478.361 203.393C478.069 201.806 476.971 200.496 475.481 199.871L490.565 174.162L634.992 172.722L619.987 198.295L619.99 198.295ZM474.698 199.625C474.301 199.53 473.892 199.464 473.461 199.47C470.946 199.495 468.91 201.331 468.625 203.671L438.119 203.951L455.433 174.511L489.629 174.17L474.696 199.623L474.698 199.625ZM436.165 203.969L402.2 204.282L434.77 148.851C435.04 148.893 435.316 148.925 435.6 148.924C438.03 148.9 440.019 147.185 440.4 144.957L471.053 144.653L436.165 203.973L436.165 203.969ZM398.458 204.315L362.724 204.644L381.841 174.183L416.13 174.239L398.458 204.315ZM401.018 84.6559L434.811 84.3468L453.012 114.105L453.122 114.282L437.958 140.073C437.233 139.679 436.403 139.441 435.508 139.45C435.226 139.453 434.954 139.491 434.685 139.538L401.021 84.6559L401.018 84.6559ZM415.509 114.419L382.551 114.748L364.703 84.9883L397.274 84.6914L415.511 114.421L415.509 114.419ZM454.06 112.683L436.719 84.3297L470.915 84.0147L454.06 112.683ZM472.635 84.2572L486.076 106.763L472.456 84.5596L472.635 84.2572ZM454.077 115.818L471.075 143.091L440.394 143.397C440.238 142.508 439.825 141.711 439.232 141.064L454.079 115.816L454.077 115.818ZM415.983 115.194L431.859 141.078C431.088 141.924 430.609 143.023 430.622 144.236C430.634 145.445 431.131 146.535 431.919 147.366L416.585 173.462L382.327 173.407L400.43 144.563L383.014 115.522L415.983 115.194ZM473.009 144.63L507.166 144.289L490.094 173.388L455.898 173.729L473.011 144.632L473.009 144.63ZM491.027 173.379L508.1 144.28L576.581 143.597C576.986 145.853 579.025 147.561 581.481 147.535C584.208 147.507 586.399 145.358 586.372 142.735C586.357 141.255 585.626 139.96 584.516 139.101L599.956 112.788L634.796 112.441L650.717 138.356C649.574 139.237 648.831 140.58 648.849 142.099C648.866 143.618 649.632 144.946 650.792 145.805L635.455 171.942L491.027 173.382L491.027 173.379ZM583.108 138.333C582.57 138.145 581.992 138.03 581.386 138.036C578.94 138.061 576.942 139.793 576.569 142.039L508.13 142.721L490.44 113.878L598.087 112.805L583.11 138.331L583.108 138.333ZM507.195 142.733L472.015 143.083L454.536 115.038L471.996 85.3451L507.195 142.733ZM618.827 86.4392L634.324 111.665L600.417 112.003L615.356 86.5406C615.869 86.7081 616.41 86.814 616.981 86.8083C617.637 86.8017 618.257 86.6657 618.827 86.4392ZM745.263 110.561L760.209 85.0872C760.716 85.2491 761.25 85.3551 761.817 85.3494C764.267 85.325 766.269 83.5854 766.636 81.3298L829.562 80.7025C829.798 81.9949 830.566 83.1077 831.653 83.8128L816.352 109.852L745.263 110.561ZM691.128 76.8349C690.633 76.6803 690.113 76.5797 689.563 76.5834C686.835 76.6105 684.645 78.7601 684.671 81.3827C684.698 84.0055 686.932 86.1109 689.659 86.0836C690.215 86.0781 690.735 85.9653 691.233 85.799L706.678 110.943L636.195 111.646L620.196 85.5983C621.231 84.718 621.891 83.4407 621.877 82.0088C621.85 79.3861 619.616 77.2807 616.888 77.3079C614.161 77.3351 611.97 79.4846 611.997 82.1073C612.012 83.6208 612.774 84.9451 613.93 85.8036L598.546 112.021L490.791 113.096L473.097 83.4662L490.734 53.4732L526.243 53.0616L634.85 51.9789L706.111 51.3259L691.124 76.8312L691.128 76.8349ZM471.376 83.2329L436.244 83.5553L418.363 54.3153L488.861 53.4974L471.376 83.2329ZM164.094 234.048L110.947 147.336L143.574 91.4148C144.273 91.7288 145.045 91.9158 145.865 91.9058C148.805 91.8765 151.173 89.5527 151.144 86.726C151.116 83.8993 148.7 81.6232 145.761 81.6525C142.821 81.6818 140.452 84.0056 140.481 86.8323C140.499 88.5906 141.443 90.1376 142.86 91.0472L110.125 147.149L110.012 147.344L163.159 234.056L128.222 234.404L75.0593 147.692L128.493 56.5727L198.091 55.914L147.292 142.425C146.997 142.374 146.692 142.344 146.379 142.347C143.659 142.374 141.474 144.518 141.501 147.133C141.527 149.749 143.756 151.849 146.475 151.822C146.796 151.818 147.106 151.78 147.406 151.721L197.841 233.71L164.096 234.046L164.094 234.048ZM145.859 91.1286C143.367 91.1535 141.318 89.2225 141.293 86.8261C141.269 84.4297 143.278 82.4582 145.771 82.4333C148.263 82.4085 150.312 84.3395 150.336 86.7359C150.36 89.1323 148.351 91.1038 145.859 91.1286ZM201.583 233.673L166.062 175.927L202.264 175.566L202.256 174.787L165.587 175.152L150.185 150.115C150.915 149.279 151.368 148.213 151.354 147.035C151.34 145.857 150.864 144.788 150.109 143.966L216.672 30.6066C216.956 30.6539 217.246 30.6844 217.545 30.6833C219.694 30.6619 221.49 29.3121 222.144 27.4598L357.675 26.1086C358.367 27.9474 360.188 29.263 362.339 29.2397C362.636 29.2367 362.923 29.1987 363.204 29.1476L396.799 83.917L364.238 84.2157L348.598 58.1346C349.896 57.1868 350.743 55.6924 350.726 54.0083C350.698 51.1816 348.282 48.9055 345.343 48.9348C342.542 48.9627 340.285 51.0795 340.1 53.7228L272.903 54.3928L272.911 55.1718L340.108 54.5019C340.345 57.1429 342.644 59.2142 345.447 59.1881C346.342 59.1792 347.173 58.9372 347.913 58.5514L381.623 114.759L308.879 115.484L308.887 116.263L382.086 115.534L399.49 144.556L381.383 173.407L346.61 173.351L346.61 174.13L380.896 174.185L344.452 232.252L201.579 233.676L201.583 233.673ZM345.439 58.4091C342.947 58.434 340.898 56.503 340.873 54.1066C340.849 51.7102 342.858 49.7387 345.351 49.7138C347.843 49.689 349.892 51.62 349.916 54.0164C349.94 56.4128 347.931 58.3843 345.439 58.4091ZM224.661 265.146C223.969 263.307 222.148 261.992 219.997 262.015C219.681 262.018 219.374 262.057 219.076 262.113L202.058 234.451L344.913 233.028L362.232 205.433L397.997 205.105L365.351 260.666C365.03 260.606 364.698 260.576 364.359 260.58C362.21 260.601 360.414 261.951 359.76 263.803L224.661 265.15L224.661 265.146ZM363.594 269.973C363.876 270.019 364.162 270.053 364.457 270.048C367.177 270.021 369.362 267.877 369.335 265.262C369.324 264.105 368.865 263.067 368.141 262.248L400.89 206.512L418.14 234.617L382.719 294.842L348.82 295.18L363.592 269.972L363.594 269.973ZM439.317 269.116L454.943 294.574L384.41 295.278L419.134 236.234L433.925 260.327C432.476 261.258 431.523 262.845 431.544 264.638C431.572 267.465 433.988 269.741 436.927 269.712C437.795 269.703 438.599 269.476 439.319 269.115L439.317 269.116ZM440.639 268.205C441.617 267.265 442.219 265.966 442.203 264.536C442.186 262.833 441.293 261.341 439.952 260.423L454.95 234.862L490.979 234.525L506.995 260.601C505.899 261.482 505.191 262.798 505.206 264.278C505.221 265.759 505.956 267.061 507.07 267.92L491.641 294.21L456.812 294.558L440.637 268.207L440.639 268.205ZM439.256 260.028C438.519 259.671 437.699 259.453 436.821 259.464C436.327 259.469 435.861 259.559 435.409 259.684L420.372 235.185L454.018 234.87L439.256 260.028ZM233.543 301.069C232.088 301.083 230.803 300.422 229.965 299.401C229.563 298.758 229.312 298.018 229.304 297.213C229.279 294.81 231.295 292.833 233.794 292.808C235.199 292.794 236.449 293.414 237.292 294.374C237.739 295.041 238.013 295.824 238.022 296.674C238.046 299.07 236.037 301.042 233.545 301.067L233.543 301.069ZM724.904 264.928L709.079 292.043L566.11 293.468L583.237 264.278L650.218 263.61C650.628 265.856 652.667 267.557 655.117 267.533C657.845 267.505 660.036 265.356 660.009 262.733C659.994 261.298 659.304 260.034 658.252 259.174L689.195 206.516C689.725 206.696 690.288 206.808 690.884 206.803C691.48 206.799 692.094 206.669 692.638 206.461L723.885 257.667C723.053 258.528 722.54 259.676 722.554 260.943C722.572 262.634 723.513 264.098 724.904 264.928ZM745.367 231.945L889.285 230.51L874.75 255.28C874.042 254.914 873.243 254.694 872.383 254.702C869.655 254.729 867.465 256.879 867.491 259.502C867.492 259.635 867.523 259.759 867.536 259.889L732.398 261.236C732.408 261.106 732.436 260.982 732.435 260.848C732.408 258.225 730.174 256.12 727.446 256.147C726.625 256.155 725.865 256.373 725.187 256.722L694.026 205.654C695.101 204.771 695.792 203.471 695.778 202.006C695.751 199.383 693.517 197.278 690.789 197.305C688.062 197.332 685.871 199.482 685.897 202.104C685.913 203.596 686.655 204.902 687.783 205.762L656.872 258.366C656.301 258.151 655.678 258.028 655.025 258.036C652.575 258.06 650.573 259.8 650.206 262.056L582.288 262.733L564.243 293.49L493.516 294.195L508.482 268.688C509.018 268.874 509.592 268.989 510.196 268.981C512.924 268.954 515.114 266.804 515.088 264.182C515.061 261.559 512.827 259.454 510.1 259.481C509.494 259.487 508.924 259.611 508.392 259.808L492.852 234.508L528.084 234.178L636.693 233.026L636.928 233.024L672.44 172.349L708.593 171.989L745.246 231.749L745.365 231.943L745.367 231.945ZM938.861 139.987C939.073 141.143 939.716 142.138 940.626 142.845L907.478 199.506L889.746 229.728L745.828 231.163L709.53 171.983L853.745 170.545L869.393 144.175C870.042 144.467 870.759 144.64 871.523 144.632C873.973 144.608 875.975 142.868 876.342 140.612L938.863 139.989L938.861 139.987ZM868.685 143.794L853.271 169.767L637.328 171.918L652.223 146.533C652.732 146.696 653.27 146.802 653.837 146.797C656.564 146.769 658.755 144.62 658.729 141.997C658.702 139.375 656.468 137.269 653.74 137.296C653.173 137.302 652.638 137.419 652.132 137.592L636.669 112.42L707.153 111.718L723.116 137.707C722.025 138.589 721.325 139.898 721.34 141.375C721.367 143.998 723.601 146.103 726.328 146.076C729.056 146.049 731.247 143.899 731.22 141.276C731.205 139.8 730.478 138.505 729.37 137.644L744.802 111.342L816.828 110.624L832.365 84.1823C833.005 84.4616 833.709 84.629 834.461 84.6215C835.07 84.6154 835.646 84.4891 836.184 84.2908L868.204 136.345C867.177 137.226 866.521 138.499 866.535 139.927C866.551 141.537 867.403 142.946 868.687 143.792L868.685 143.794ZM724.507 136.908L709.022 111.701L742.929 111.363L727.959 136.874C727.419 136.684 726.837 136.569 726.228 136.576C725.618 136.582 725.041 136.706 724.503 136.908L724.507 136.908ZM669.082 -69.1946L685.059 -43.013C684.179 -42.292 683.568 -41.2916 683.381 -40.1452L548.401 -38.7995C547.991 -41.0455 545.954 -42.7448 543.502 -42.7222C542.866 -42.7158 542.261 -42.5836 541.704 -42.3666L526.163 -67.7698L669.082 -69.1946ZM524.294 -67.753L540.327 -41.5442C539.271 -40.6618 538.596 -39.3732 538.61 -37.9265C538.637 -35.3038 540.871 -33.1984 543.599 -33.2256C546.048 -33.25 548.052 -34.9914 548.417 -37.2452L683.397 -38.5909C683.807 -36.3449 685.844 -34.6419 688.296 -34.6682C690.746 -34.6926 692.75 -36.434 693.115 -38.6877L755.693 -39.3117C756.104 -37.0656 758.141 -35.3626 760.593 -35.3889C761.31 -35.3961 761.986 -35.5568 762.596 -35.8263L794.465 16.3503C793.45 17.2304 792.805 18.4964 792.819 19.9135C792.846 22.5362 795.08 24.6416 797.807 24.6144C800.257 24.5899 802.259 22.8504 802.626 20.5948L865.147 19.9715C865.552 22.2269 867.591 23.9353 870.048 23.9108C870.662 23.9047 871.241 23.7784 871.779 23.5764L940.554 135.539C939.66 136.262 939.04 137.272 938.853 138.425L876.332 139.049C875.921 136.803 873.884 135.1 871.433 135.126C870.773 135.133 870.145 135.269 869.573 135.501L837.582 83.4922C838.673 82.6095 839.375 81.2984 839.36 79.822C839.344 78.212 838.492 76.8033 837.209 75.9572L852.931 49.2018L708.455 50.5253L723.423 25.0536C723.953 25.2338 724.517 25.3469 725.113 25.3391C727.841 25.3119 730.032 23.1624 730.005 20.5398C729.979 17.917 727.744 15.8116 725.017 15.8389C722.567 15.8632 720.565 17.6028 720.198 19.8584L653.044 20.5279L634.47 -9.31361L626.398 -9.17563L454.545 -7.46234L471.825 -36.8692L489.743 -67.4085L524.302 -67.7531L524.294 -67.753ZM487.864 -67.3898L470.405 -37.6342L437.118 19.0133C436.588 18.8331 436.025 18.7219 435.431 18.7278C434.806 18.734 434.213 18.8624 433.666 19.0737L401.732 -32.991C402.763 -33.8713 403.42 -35.1448 403.405 -36.5767C403.379 -39.1993 401.144 -41.3048 398.417 -41.2776C397.858 -41.272 397.328 -41.1573 396.828 -40.989L381.284 -66.3291L487.866 -67.3917L487.864 -67.3898ZM578.032 -98.6902C578.054 -96.5015 576.219 -94.7006 573.943 -94.6779C571.667 -94.6552 569.795 -96.4191 569.773 -98.6078C569.75 -100.797 571.586 -102.597 573.862 -102.62C576.138 -102.643 578.01 -100.879 578.032 -98.6902Z" fill="url(#paint0_linear_14_19431)" fill-opacity="0.11"/>
<defs>
<linearGradient id="paint0_linear_14_19431" x1="850.586" y1="138.855" x2="85.9073" y2="148.43" gradientUnits="userSpaceOnUse">
<stop stop-color="#0066D4"/>
<stop offset="1" stop-color="#3FF1FF"/>
</linearGradient>
</defs>
</svg>
