<svg width="328" height="328" viewBox="0 0 328 328" fill="none" xmlns="http://www.w3.org/2000/svg">
<g clip-path="url(#clip0_14_22262)">
<path d="M170.801 128.808C170.801 125.936 169.042 123.472 166.544 122.435V78.7381L197.66 60.2794L197.58 32.4045C200.07 31.3634 201.82 28.9076 201.82 26.0403C201.82 22.2327 198.735 19.1472 194.927 19.1472C191.119 19.1472 188.034 22.2327 188.034 26.0403C188.034 28.9202 189.801 31.3886 192.307 32.4171L192.379 57.2778L166.544 72.6006V13.2657C169.042 12.2288 170.801 9.76878 170.801 6.89733C170.801 3.15269 167.816 0.113326 164.097 0.0125732V135.697C167.816 135.596 170.801 132.557 170.801 128.812V128.808Z" fill="#65BC7B"/>
<path d="M196.413 83.7254L205.363 118.779L191.459 132.683C188.962 131.646 185.977 132.145 183.945 134.177C181.254 136.868 181.254 141.234 183.945 143.925C186.636 146.616 191.002 146.616 193.693 143.925C195.725 141.893 196.22 138.908 195.187 136.411L226.089 105.509L261.142 114.459L280.798 94.6906C283.291 95.715 286.268 95.2154 288.295 93.1877C290.986 90.4968 290.986 86.1309 288.295 83.4399C285.604 80.749 281.238 80.749 278.547 83.4399C276.511 85.476 276.016 88.4692 277.061 90.9712L259.53 108.603L230.43 101.172L272.393 59.2089C274.891 60.2458 277.876 59.7463 279.908 57.7144C282.599 55.0235 282.599 50.6576 279.908 47.9666C277.217 45.2757 272.851 45.2757 270.16 47.9666C268.128 49.9985 267.633 52.9833 268.665 55.4811L209.708 114.438L202.278 85.3374L219.909 67.8065C222.411 68.8518 225.405 68.3564 227.441 66.3204C230.132 63.6294 230.132 59.2635 227.441 56.5726C224.75 53.8816 220.384 53.8816 217.693 56.5726C215.665 58.6002 215.166 61.5724 216.19 64.0702L196.426 83.7254H196.413Z" fill="#65BC7B"/>
<path d="M321.107 157.015C318.235 157.015 315.771 158.773 314.738 161.271H231.361L246.684 135.437L271.545 135.508C272.578 138.018 275.042 139.786 277.922 139.786C281.729 139.786 284.815 136.7 284.815 132.893C284.815 129.085 281.729 126 277.922 126C275.054 126 272.599 127.75 271.558 130.24L243.683 130.16L225.224 161.276H205.56C204.523 158.778 202.063 157.019 199.192 157.019C195.384 157.019 192.299 160.104 192.299 163.912C192.299 167.719 195.384 170.805 199.192 170.805C202.063 170.805 204.528 169.046 205.56 166.548H249.258L267.716 197.664L295.591 197.584C296.632 200.074 299.088 201.824 301.955 201.824C305.763 201.824 308.849 198.739 308.849 194.931C308.849 191.123 305.763 188.038 301.955 188.038C299.076 188.038 296.607 189.805 295.579 192.316L270.718 192.387L255.395 166.552H314.738C315.775 169.05 318.235 170.809 321.107 170.809C324.914 170.809 328 167.724 328 163.916C328 160.108 324.914 157.023 321.107 157.023V157.015Z" fill="#65BC7B"/>
<path d="M272.519 268.657L213.562 209.7L242.662 202.269L260.193 219.901C259.148 222.403 259.643 225.396 261.68 227.432C264.37 230.123 268.736 230.123 271.427 227.432C274.118 224.741 274.118 220.375 271.427 217.684C269.4 215.657 266.427 215.157 263.93 216.181L244.274 196.417L209.221 205.367L195.317 191.463C196.354 188.966 195.854 185.981 193.823 183.949C191.132 181.258 186.766 181.258 184.075 183.949C181.384 186.64 181.384 191.006 184.075 193.697C186.107 195.729 189.091 196.224 191.589 195.191L222.491 226.093L213.541 261.146L233.305 280.802C232.281 283.295 232.78 286.272 234.808 288.299C237.499 290.99 241.865 290.99 244.556 288.299C247.247 285.608 247.247 281.242 244.556 278.551C242.52 276.515 239.527 276.02 237.025 277.065L219.393 259.534L226.823 230.434L268.787 272.397C267.75 274.895 268.249 277.88 270.281 279.912C272.972 282.603 277.338 282.603 280.029 279.912C282.72 277.221 282.72 272.855 280.029 270.164C277.997 268.132 275.012 267.637 272.515 268.669L272.519 268.657Z" fill="#65BC7B"/>
<path d="M197.765 271.558L197.844 243.683L166.729 225.224V205.56C169.226 204.523 170.985 202.063 170.985 199.192C170.985 195.384 167.9 192.299 164.092 192.299V328C167.9 328 170.985 324.914 170.985 321.107C170.985 318.235 169.226 315.771 166.729 314.738V231.357L192.563 246.68L192.492 271.541C189.981 272.573 188.218 275.038 188.218 277.918C188.218 281.725 191.304 284.811 195.111 284.811C198.919 284.811 202.005 281.725 202.005 277.918C202.005 275.05 200.254 272.594 197.765 271.553V271.558Z" fill="#65BC7B"/>
<path d="M163.908 0C160.1 0 157.015 3.08555 157.015 6.89316C157.015 9.7646 158.774 12.2288 161.272 13.2616V96.6427L135.437 81.3199L135.508 56.4592C138.019 55.4265 139.782 52.9623 139.782 50.0824C139.782 46.2748 136.696 43.1893 132.889 43.1893C129.081 43.1893 125.996 46.2748 125.996 50.0824C125.996 52.9497 127.746 55.4055 130.236 56.4466L130.156 84.3215L161.272 102.78V122.444C158.774 123.481 157.015 125.941 157.015 128.816C157.015 132.624 160.1 135.71 163.908 135.71C163.971 135.71 164.034 135.701 164.097 135.701V0.00839605C164.034 0.00839605 163.971 0 163.908 0Z" fill="white"/>
<path d="M157.199 199.192C157.199 202.063 158.958 204.528 161.456 205.56V249.258L130.34 267.716L130.42 295.591C127.931 296.632 126.18 299.088 126.18 301.955C126.18 305.763 129.266 308.849 133.073 308.849C136.881 308.849 139.966 305.763 139.966 301.955C139.966 299.076 138.199 296.607 135.693 295.579L135.622 270.718L161.456 255.395V314.738C158.958 315.775 157.199 318.235 157.199 321.107C157.199 324.914 160.285 328 164.093 328V192.299C160.285 192.299 157.199 195.384 157.199 199.192Z" fill="white"/>
<path d="M131.587 244.279L122.637 209.225L136.541 195.321C139.039 196.354 142.024 195.859 144.055 193.827C146.746 191.136 146.746 186.77 144.055 184.079C141.365 181.388 136.999 181.388 134.308 184.079C132.276 186.111 131.78 189.096 132.813 191.594L101.912 222.495L66.858 213.545L47.2029 233.309C44.7093 232.285 41.7329 232.785 39.7052 234.812C37.0143 237.503 37.0143 241.869 39.7052 244.56C42.3961 247.251 46.7621 247.251 49.453 244.56C51.4891 242.524 51.9844 239.531 50.9391 237.029L68.4701 219.397L97.5708 226.828L55.6073 268.791C53.1095 267.754 50.1247 268.254 48.0929 270.286C45.4019 272.976 45.4019 277.342 48.0929 280.033C50.7838 282.724 55.1497 282.724 57.8407 280.033C59.8725 278.001 60.3679 275.017 59.3352 272.519L118.292 213.562L125.723 242.663L108.091 260.193C105.589 259.148 102.596 259.644 100.56 261.68C97.8688 264.371 97.8688 268.736 100.56 271.427C103.251 274.118 107.617 274.118 110.308 271.427C112.335 269.4 112.835 266.428 111.81 263.93L131.579 244.275L131.587 244.279Z" fill="white"/>
<path d="M81.3201 192.563L56.4594 192.492C55.4267 189.982 52.9625 188.214 50.0826 188.214C46.275 188.214 43.1895 191.3 43.1895 195.107C43.1895 198.915 46.275 202 50.0826 202C52.9499 202 55.4057 200.25 56.4468 197.76L84.3217 197.84L102.78 166.724H122.444C123.481 169.222 125.941 170.981 128.812 170.981C132.62 170.981 135.706 167.896 135.706 164.088C135.706 160.281 132.62 157.195 128.812 157.195C125.941 157.195 123.477 158.954 122.444 161.452H78.7467L60.288 130.336L32.4131 130.416C31.372 127.926 28.9162 126.176 26.0489 126.176C22.2413 126.176 19.1558 129.261 19.1558 133.069C19.1558 136.877 22.2413 139.962 26.0489 139.962C28.9288 139.962 31.3972 138.195 32.4257 135.684L57.2864 135.613L72.6092 161.448H13.266C12.229 158.95 9.769 157.191 6.89755 157.191C3.08994 157.191 0.00439453 160.276 0.00439453 164.084C0.00439453 167.892 3.08994 170.977 6.89755 170.977C9.769 170.977 12.2332 169.218 13.266 166.72H96.6429L81.3201 192.555V192.563Z" fill="white"/>
<path d="M55.4811 59.3432L114.438 118.3L85.3375 125.731L67.8065 108.099C68.8518 105.597 68.3564 102.604 66.3204 100.568C63.6295 97.8769 59.2635 97.8769 56.5726 100.568C53.8817 103.259 53.8817 107.625 56.5726 110.316C58.6002 112.343 61.5724 112.843 64.0703 111.819L83.7254 131.583L118.779 122.633L132.683 136.537C131.646 139.034 132.145 142.019 134.177 144.051C136.868 146.742 141.234 146.742 143.925 144.051C146.616 141.36 146.616 136.994 143.925 134.303C141.893 132.271 138.908 131.776 136.411 132.809L105.509 101.907L114.459 66.8535L94.6949 47.1984C95.7192 44.7047 95.2196 41.7283 93.192 39.7007C90.501 37.0098 86.1351 37.0098 83.4441 39.7007C80.7532 42.3916 80.7532 46.7576 83.4441 49.4485C85.4802 51.4845 88.4734 51.9799 90.9754 50.9346L108.607 68.4656L101.177 97.5663L59.2131 55.6028C60.2501 53.105 59.7505 50.1202 57.7187 48.0883C55.0277 45.3974 50.6618 45.3974 47.9708 48.0883C45.2799 50.7793 45.2799 55.1452 47.9708 57.8362C50.0027 59.868 52.9875 60.3634 55.4853 59.3307L55.4811 59.3432Z" fill="white"/>
<path d="M174.713 164.097C174.713 158.232 169.961 153.476 164.097 153.476V157.783C167.581 157.783 170.406 160.608 170.406 164.097C170.406 167.585 167.581 170.41 164.097 170.41V174.713C169.961 174.713 174.713 169.961 174.713 164.097Z" fill="#F7941D"/>
<path d="M157.783 164.097C157.783 160.608 160.608 157.783 164.097 157.783V153.476C158.232 153.476 153.48 158.232 153.48 164.097C153.48 169.961 158.236 174.713 164.097 174.713V170.41C160.608 170.41 157.783 167.581 157.783 164.097Z" fill="white"/>
</g>
<defs>
<clipPath id="clip0_14_22262">
<rect width="328" height="328" fill="white"/>
</clipPath>
</defs>
</svg>
