<svg width="35" height="35" viewBox="0 0 35 35" fill="none" xmlns="http://www.w3.org/2000/svg">
<g clip-path="url(#clip0_14_22291)">
<path d="M19.5104 16.8259C19.2251 17.097 19.0031 17.3078 18.7321 17.5652C18.6393 17.0503 18.583 16.6368 18.9802 16.2908C19.2695 16.039 19.5311 15.7534 19.795 15.4726C19.9377 15.3214 20.0487 15.323 20.1905 15.4726C20.5116 15.8097 20.9024 16.097 21.1497 16.4807C21.3225 16.7478 21.3042 17.142 21.3716 17.4791C21.3272 17.4984 21.282 17.5186 21.2377 17.5379C21.0054 17.3198 20.7724 17.1018 20.4743 16.8226C20.4482 17.0157 20.422 17.1251 20.4212 17.2354C20.4173 17.7848 20.4355 18.3351 20.4133 18.8846C20.3998 19.2266 20.5298 19.3207 20.8508 19.3134C21.7093 19.2957 22.5685 19.2845 23.4262 19.3175C23.8281 19.3328 23.9636 19.1614 24.0072 18.8002C24.1134 17.9321 24.4511 17.1525 24.9584 16.4526C25.8137 15.2715 26.948 14.5241 28.3748 14.2514C28.649 14.1991 28.8504 14.1854 28.7267 13.7526C27.8374 10.6423 25.9825 8.31802 23.2613 6.67277C23.1511 6.60599 22.9871 6.52473 22.9704 6.42819C22.9387 6.24878 22.9332 5.95111 23.0322 5.88755C23.1821 5.79101 23.4841 5.76768 23.6283 5.861C24.3695 6.34452 25.1249 6.8216 25.7931 7.39925C27.613 8.9729 28.8654 10.9609 29.521 13.2835C29.7207 13.9907 30.0497 14.1597 30.6759 14.2932C32.3579 14.6512 33.5937 15.6633 34.3808 17.2144C34.7827 18.0069 35.0339 18.8701 34.9975 19.7535C34.9008 22.0995 33.6072 24.3562 30.9549 25.1237C29.8174 25.4528 28.6966 25.4021 27.5766 25.0384C27.4632 25.0014 27.2524 25.0505 27.1802 25.1382C26.0666 26.497 24.7143 27.5445 23.1916 28.3853C23.0822 28.4456 22.9791 28.6604 22.9926 28.7899C23.2399 31.0563 22.0057 33.3838 19.9099 34.4168C19.1205 34.8053 18.2731 35.0346 17.4345 34.9984C15.6486 34.9228 14.1235 34.2052 13.0336 32.6943C12.1966 31.535 11.8597 30.2316 11.9643 28.8084C11.9841 28.5389 11.9009 28.3852 11.6734 28.2662C10.2244 27.5083 8.97517 26.4914 7.93044 25.2235C7.71801 24.966 7.546 24.9435 7.22577 25.0417C4.57193 25.855 1.62402 24.6571 0.47387 21.8598C0.174244 21.1309 -0.0405676 20.3682 0.00778475 19.5693C0.136989 17.4292 1.22928 15.364 3.61995 14.4372C4.0567 14.2683 4.54102 14.2297 4.99442 14.1001C5.11649 14.0655 5.25838 13.9408 5.30594 13.8218C5.6666 12.9223 5.94245 11.9826 6.36414 11.1145C7.46753 8.84257 9.16383 7.12089 11.323 5.86342C11.5807 5.71377 11.8502 5.63091 12.0467 5.94628C12.2069 6.20293 12.0903 6.47727 11.7685 6.66392C9.12261 8.20056 7.35973 10.4677 6.37524 13.3777C6.30786 13.578 6.27616 13.7904 6.2175 14.0406C6.62414 14.1645 7.04266 14.2634 7.44058 14.4171C9.40717 15.1782 10.6112 16.6022 10.9957 18.7133C11.1011 19.2933 11.0924 19.3046 11.6615 19.3046C12.4676 19.3046 13.273 19.2965 14.0791 19.3094C14.3542 19.3134 14.4588 19.2113 14.4541 18.9361C14.4445 18.3464 14.4541 17.7559 14.4493 17.1662C14.4493 17.0817 14.4112 16.9972 14.3732 16.8411C14.0981 17.1042 13.8691 17.3239 13.5869 17.5942C13.5282 17.0302 13.4712 16.5748 13.9325 16.2209C14.2036 16.0133 14.4303 15.7422 14.6633 15.4871C14.8187 15.3166 14.9392 15.3327 15.0898 15.4912C15.4013 15.8186 15.7802 16.097 16.0235 16.4686C16.2011 16.7398 16.205 17.1276 16.2859 17.4638C16.236 17.4928 16.186 17.5226 16.1361 17.5515C15.8975 17.3311 15.6589 17.1099 15.349 16.8242C15.3252 17.0358 15.2974 17.1686 15.2967 17.3013C15.2927 18.0656 15.2753 18.8307 15.303 19.5934C15.3165 19.9732 15.2182 20.1051 14.825 20.0954C13.7288 20.0689 12.6325 20.097 11.5363 20.0802C11.22 20.0753 11.0765 20.1984 11.0329 20.5009C10.8031 22.1124 10.0128 23.3739 8.70646 24.3079C8.45915 24.4849 8.61689 24.6225 8.73896 24.7649C9.56808 25.7335 10.5328 26.5381 11.6219 27.1881C11.7915 27.2895 11.9667 27.3828 12.1926 27.5099C12.3155 27.2718 12.432 27.0425 12.5525 26.814C13.3974 25.2114 14.6681 24.1848 16.4508 23.8574C17.0358 23.7496 17.0516 23.7399 17.0516 23.1454C17.0516 20.303 17.0516 17.4606 17.0516 14.6174C17.0516 14.475 17.0397 14.3318 17.027 14.0575C16.6981 14.3536 16.4524 14.574 16.1599 14.8371C16.1337 14.3326 16.01 13.8813 16.4611 13.5032C16.794 13.224 17.0667 12.8716 17.4194 12.4951C17.8657 12.9601 18.3294 13.3495 18.6639 13.8314C18.8216 14.0591 18.7297 14.4638 18.7574 14.8845C18.4261 14.5804 18.1827 14.3576 17.8514 14.0527C17.8356 14.3383 17.8197 14.4911 17.8197 14.644C17.8181 17.4598 17.8189 20.2757 17.8189 23.0915C17.8189 23.7295 17.8173 23.7431 18.453 23.8469C19.7712 24.0609 20.8611 24.6941 21.6942 25.736C22.0541 26.1865 22.3204 26.7199 22.5884 27.238C22.7096 27.4721 22.7849 27.5317 23.0291 27.3965C24.2363 26.732 25.289 25.8759 26.2108 24.8445C26.428 24.6016 26.4423 24.4543 26.1577 24.2428C24.9663 23.3578 24.2411 22.1703 24.0009 20.6844C23.9042 20.0858 23.897 20.0866 23.2946 20.0866C22.1849 20.0866 21.0752 20.0777 19.9654 20.0922C19.6587 20.0962 19.5517 20.0053 19.5604 19.6811C19.5826 18.85 19.5691 18.019 19.5659 17.1871C19.5659 17.0986 19.5406 17.0109 19.512 16.8259H19.5104ZM0.882091 19.6594C0.842458 22.2371 2.90259 24.493 5.64758 24.493C8.04538 24.493 10.3092 22.4977 10.3132 19.632C10.3171 17.0761 8.16032 14.8684 5.61746 14.8709C3.00643 14.8741 0.855141 17.0624 0.882091 19.6586V19.6594ZM22.1873 29.3684C22.2729 26.8382 20.189 24.5501 17.505 24.5541C14.8623 24.5573 12.7847 26.5847 12.7506 29.3145C12.7173 32.0426 14.9304 34.1135 17.4337 34.1553C19.9123 34.1971 22.2705 32.0257 22.1865 29.3684H22.1873ZM34.147 19.7519C34.2143 17.2257 32.1788 14.9368 29.4187 14.9224C26.8196 14.9087 24.7151 17.101 24.7103 19.7503C24.7048 22.4141 26.9599 24.5453 29.4568 24.5324C32.0123 24.5195 34.2183 22.2902 34.1477 19.7519H34.147Z" fill="#65BC7B"/>
<path d="M13.4627 4.06849C13.4001 1.9888 15.094 -0.00642066 17.506 1.55293e-05C19.9316 0.00645172 21.5906 2.06523 21.5351 4.18515C21.4781 6.36058 19.7849 8.2488 17.4133 8.21098C15.1225 8.17398 13.3985 6.28254 13.4627 4.0693V4.06849ZM14.3576 4.0878C14.2966 5.85856 15.7725 7.26406 17.4355 7.30429C19.1603 7.34612 20.5927 5.88511 20.6386 4.16101C20.683 2.52622 19.4068 0.901082 17.4862 0.889819C15.7368 0.87936 14.3092 2.35003 14.3576 4.087V4.0878Z" fill="#65BC7B"/>
<path d="M11.167 14.6697C11.167 11.8699 12.5026 9.96965 15.0851 9.03962C16.0561 8.68965 17.0501 8.4845 18.0671 8.60035C20.5054 8.87872 22.5052 9.90127 23.5841 12.2754C23.8084 12.7694 23.8877 13.3511 23.9408 13.9022C24.001 14.5257 23.9582 15.1604 23.9558 15.7904C23.9558 15.8829 23.963 16.0092 23.9106 16.0607C23.7735 16.1959 23.5967 16.3978 23.4525 16.3841C23.3146 16.3712 23.1085 16.1307 23.0902 15.9722C23.0395 15.5225 23.0435 15.0615 23.0712 14.6077C23.2266 12.0743 21.5223 10.6776 19.9053 9.98011C19.0373 9.606 18.1171 9.40246 17.1714 9.50624C15.1771 9.72588 13.5054 10.5256 12.4725 12.3752C12.1903 12.8804 12.0397 13.4275 12.0556 14.0212C12.0722 14.6375 12.0532 15.2538 12.0619 15.87C12.0659 16.1878 11.947 16.4074 11.6212 16.4091C11.2978 16.4099 11.1654 16.1894 11.167 15.8749C11.1686 15.4726 11.167 15.0711 11.167 14.6689V14.6697Z" fill="#65BC7B"/>
<path d="M7.8164 18.1299C7.70147 17.7092 7.78232 17.3825 8.17786 17.2498C8.52663 17.1331 8.8643 17.1645 9.10289 17.4895C9.33673 17.8073 9.33277 18.1557 9.07911 18.4469C8.94991 18.595 8.73034 18.7333 8.54565 18.7422C8.23255 18.7567 8.07323 18.9345 7.90439 19.1428C7.74506 19.3391 7.56037 19.5177 7.42641 19.7293C7.3519 19.8476 7.31544 20.0246 7.33684 20.1638C7.40897 20.6376 7.13154 21.0938 6.70271 21.155C6.18352 21.2282 5.78481 20.9241 5.7317 20.4124C5.67938 19.912 5.16574 19.6006 4.66795 19.6513C3.94583 19.7245 3.8309 20.3826 3.47895 20.809C3.42585 20.8742 3.51383 21.0568 3.53286 21.1855C3.59706 21.6232 3.39018 22.0086 3.03427 22.1188C2.57136 22.2612 2.19246 22.1131 2.00064 21.7141C1.80723 21.3118 1.91028 20.912 2.27569 20.665C2.33911 20.6224 2.41679 20.5717 2.48733 20.5733C3.2689 20.5886 3.37353 19.838 3.75718 19.4083C3.81029 19.3488 3.75401 19.1815 3.73657 19.0656C3.65572 18.5258 3.94583 18.0841 4.41509 18.039C4.96995 17.9851 5.34805 18.3158 5.38451 18.8862C5.41305 19.3271 5.90133 19.5548 6.32937 19.5475C6.95002 19.5371 7.22745 19.1412 7.52312 18.7293C7.65074 18.5515 7.72049 18.3311 7.8164 18.1299ZM5.01989 18.8637C4.80032 18.6923 4.66398 18.5032 4.54429 18.5137C4.4135 18.5258 4.29777 18.7213 4.1757 18.8371C4.29619 18.953 4.4032 19.1332 4.54191 19.163C4.64655 19.1855 4.79081 19.0157 5.01989 18.8637ZM7.02057 20.3472C6.801 20.1847 6.6607 20.0005 6.54339 20.0141C6.4118 20.0302 6.21126 20.2217 6.2073 20.3432C6.20333 20.4623 6.39991 20.6739 6.52436 20.6867C6.64802 20.6996 6.7907 20.5146 7.02057 20.3464V20.3472ZM3.24036 21.3633C2.99939 21.196 2.86306 21.0286 2.72434 21.027C2.61178 21.0254 2.39142 21.2394 2.40569 21.3255C2.42947 21.4639 2.59514 21.6554 2.72196 21.6747C2.84482 21.6932 2.99543 21.521 3.23957 21.3641L3.24036 21.3633ZM8.44419 18.4059C8.60193 18.2144 8.76205 18.1042 8.76363 17.9924C8.76522 17.8846 8.594 17.6826 8.51157 17.6891C8.39346 17.6987 8.22462 17.8427 8.1945 17.961C8.16993 18.0559 8.31895 18.1959 8.44419 18.4059Z" fill="#65BC7B"/>
<path d="M19.0103 31.4103C18.2818 31.4062 17.8284 30.9597 17.8355 30.255C17.8427 29.5751 18.3428 29.0916 19.0317 29.1005C19.7514 29.1093 20.2088 29.5695 20.1953 30.2727C20.1818 31.0016 19.7506 31.4151 19.0095 31.4111L19.0103 31.4103ZM19.4835 30.1665C19.3416 30.0096 19.214 29.7401 19.0554 29.7199C18.74 29.6797 18.6615 29.9822 18.6654 30.2477C18.6694 30.5011 18.6924 30.8061 19.0388 30.7996C19.3757 30.794 19.405 30.5164 19.4835 30.1657V30.1665Z" fill="#65BC7B"/>
<path d="M15.6782 31.3764C16.5153 30.0505 17.3246 28.7561 18.1497 27.4721C18.3582 27.1478 18.6792 27.2951 19.0336 27.3272C18.6808 27.888 18.3598 28.4021 18.0364 28.9146C17.6107 29.5888 17.1462 30.242 16.7681 30.9436C16.5145 31.4134 16.1879 31.4979 15.6782 31.3772V31.3764Z" fill="#65BC7B"/>
<path d="M15.7623 29.526C15.1067 29.5236 14.7294 29.16 14.7389 28.5405C14.7477 27.9564 15.19 27.526 15.7861 27.5236C16.3829 27.5204 16.8554 27.9476 16.834 28.5341C16.8173 29.0015 16.5692 29.5824 15.7623 29.526ZM16.2989 28.5043C16.0643 28.316 15.9335 28.1254 15.7837 28.1093C15.5142 28.0795 15.4706 28.3193 15.4666 28.5493C15.4619 28.7907 15.5514 29.0216 15.7908 28.9894C15.9438 28.9685 16.0698 28.7344 16.2989 28.5043Z" fill="#65BC7B"/>
<path d="M25.7513 19.7446C25.7482 17.9232 27.4468 16.5805 29.1598 17.0366C29.2565 17.0624 29.3722 17.0696 29.4658 17.0406C31.5845 16.3858 33.3443 18.0366 33.1271 20.0182C32.9495 21.6393 31.5655 22.6546 30.042 22.4921C29.7258 22.4583 29.3849 22.4688 29.0789 22.55C27.8503 22.8742 26.2602 21.978 25.8948 20.7246C25.8465 20.5588 25.7815 20.3955 25.7561 20.2258C25.7323 20.0689 25.7513 19.9056 25.7513 19.7446ZM30.4011 21.9917C31.5663 21.9764 32.6745 21.0721 32.6594 19.6964C32.6451 18.3689 31.7098 17.4678 30.3884 17.4147C29.1875 17.3665 28.1484 18.4373 28.1325 19.6674C28.1166 20.9466 29.1257 21.9804 30.4011 21.9909V21.9917ZM28.6002 21.9209C27.2994 20.5291 27.2305 19.0874 28.4615 17.6127C27.9264 17.4228 27.1187 17.809 26.6811 18.4461C26.1088 19.2796 26.1453 20.4196 26.7691 21.2016C27.2764 21.8364 28.058 22.1526 28.601 21.9201L28.6002 21.9209Z" fill="#65BC7B"/>
<path d="M30.2125 20.422C30.2933 20.1686 30.2917 19.924 29.901 19.7334C29.7083 19.6392 29.5181 19.3383 29.507 19.1211C29.4975 18.9256 29.6909 18.6561 29.87 18.5274C30.2703 18.2385 30.4217 18.2595 30.8736 18.4743C30.9726 18.5209 31.0662 18.5789 31.1629 18.6312C31.1621 18.6722 31.1605 18.7132 31.1597 18.7551C30.9608 18.809 30.7618 18.8629 30.5494 18.92C30.4154 19.2555 30.5153 19.4976 30.8807 19.6038C31.2112 19.7004 31.3452 19.9321 31.3452 20.2603C31.3452 20.5894 31.1803 20.8018 30.8878 20.9426C30.742 21.0134 30.6278 21.1493 30.4931 21.2467C30.4455 21.2813 30.3512 21.3231 30.3242 21.3014C30.0492 21.0858 29.7836 20.8581 29.4341 20.5644C29.7068 20.5145 29.9311 20.4735 30.2133 20.422H30.2125ZM30.5414 20.5226C30.5834 20.5427 30.6247 20.5636 30.6667 20.5837C30.7325 20.48 30.8498 20.3746 30.8482 20.2716C30.8466 20.1775 30.7166 20.0857 30.6429 19.9932C30.6096 20.0117 30.5755 20.0302 30.5422 20.0495V20.5226H30.5414Z" fill="#65BC7B"/>
</g>
<defs>
<clipPath id="clip0_14_22291">
<rect width="35" height="35" fill="white"/>
</clipPath>
</defs>
</svg>
