<svg width="572" height="137" viewBox="0 0 572 137" fill="none" xmlns="http://www.w3.org/2000/svg">
<g opacity="0.07">
<g clip-path="url(#clip0_334_3)">
<path d="M468.472 38.9168L467.51 38.8546L466.968 39.6473C466.813 39.8804 451.62 61.8566 426.784 68.2909L428.102 66.3016L385.747 0H417.606L444.364 43.8591L471.681 0H503.819L477.68 40.4399C474.688 39.6628 471.634 39.0878 468.456 38.9013L468.472 38.9168Z" fill="white"/>
<path d="M393.777 122.252C395.064 120.123 399.793 117.869 404.785 115.476C408.459 113.72 412.552 111.761 416.288 109.399L423.063 105.933C423.605 105.654 433.481 100.525 444.209 90.407L414.722 136.535H399.142L397.514 135.214C397.204 134.95 389.793 128.858 393.777 122.252Z" fill="white"/>
<path d="M478.502 119.75C480.161 120.216 483.509 120.511 487.308 117.263C489.029 115.787 491.587 115.087 493.959 114.761L508.19 136.535H475.215L465.464 121.335L476.006 119.657C476.921 119.517 477.758 119.548 478.502 119.75Z" fill="white"/>
<path d="M381.809 76.9477C391.313 72.8447 401.963 78.7506 402.336 78.9526C406.8 75.5334 413.544 72.7359 423.683 70.7931C451.589 65.4156 468.363 40.6108 468.363 40.6108C498.207 42.3982 517.012 70.4978 517.012 70.4978C516.702 70.187 516.19 69.6897 515.88 69.3633C496.78 50.4644 469.774 56.8987 453.217 78.0823C439.527 95.5979 422.288 104.426 422.288 104.426C431.233 96.8413 425.869 86.2262 425.869 86.2262C432.753 108.42 397.126 113.378 392.321 121.382C387.499 129.37 396.444 136.551 396.444 136.551H381.732C378.569 125.936 391.22 120.294 388.197 112.57C385.174 104.845 393.84 101.535 393.84 101.535C393.731 95.9399 394.041 90.6556 396.367 86.0086C394.367 84.6098 390.646 82.6827 385.53 82.9469C377.608 83.351 369.205 93.2045 375.391 95.9399C381.577 98.6597 385.437 95.0073 387.902 98.7218C390.367 102.436 382.073 115.15 382.073 115.15C381.468 115.227 382.864 112.414 381.747 107.985C380.6 103.4 386.011 103.229 386.011 103.229C387.98 95.5047 383.282 101.131 373.515 98.1313C363.764 95.1317 372.12 81.1285 381.809 76.9477Z" fill="#65BC7B"/>
<path d="M466.89 96.8259C479.215 94.8676 488.672 102.032 488.672 102.032C487.199 96.7015 480.89 93.7331 480.89 93.7331C489.788 87.6251 491.137 74.8652 491.137 74.8652C493.819 84.439 487.386 91.5572 487.386 91.5572C504.144 100.354 500.501 112.896 500.501 112.896C500.501 112.896 490.936 111.901 486.207 115.958C483.06 118.662 480.378 118.507 478.952 118.103C477.913 117.807 476.812 117.807 475.743 117.963L465.061 119.657L471.247 108.871C471.696 108.187 473.014 108.7 473.557 109.322C475.123 111.109 478.642 112.554 479.603 110.332C480.89 107.363 489.85 105.794 489.85 105.794C479.494 97.5874 463.836 100.167 463.836 100.167C459.697 88.3089 463.836 80.0096 463.836 80.0096C463.046 90.6868 466.89 96.8259 466.89 96.8259Z" fill="#65BC7B"/>
<path d="M507.524 116.3C507.431 115.165 507.757 114.124 508.33 113.393C505.431 111.373 502.718 108.404 505.307 105.312C505.307 105.312 507.478 103.042 505.307 100.571C503.137 98.1001 501.757 90.5934 508.16 87.2364C508.16 87.2364 503.524 91.0908 506.578 95.9398C509.136 99.9807 514.159 100.494 517.462 98.1468C513.245 91.9145 521.105 89.8785 521.105 89.8785C521.105 89.8785 519.958 90.7644 520.097 93.9349C520.113 94.3701 520.082 94.7587 520.004 95.1161C522.314 91.0597 523.477 86.0241 532.003 88.3243C532.003 88.3243 529.337 85.5579 524.764 86.0086C524.764 86.0086 531.414 79.6364 539.988 86.0086C548.561 92.3807 556.979 95.3492 562.018 90.0028C562.018 90.0028 558.173 102.452 544.282 95.9398C530.391 89.4123 526.546 94.3079 526.546 94.3079C526.546 94.3079 528.686 92.645 531.492 92.847C531.492 92.847 530.035 99.0016 523.725 101.566C518.609 103.649 514.361 111.544 512.981 115.989C512.981 115.989 511.136 115.212 509.136 113.953C509.291 113.626 509.632 113.067 510.206 112.709C509.043 113.036 508.253 114.419 508.392 116.004C508.547 117.761 509.757 119.097 511.121 118.973C512.035 118.895 512.764 118.18 513.105 117.201C512.795 118.6 511.865 119.641 510.656 119.734C509.09 119.874 507.679 118.336 507.509 116.3H507.524Z" fill="#65BC7B"/>
<path d="M350.679 97.5407C339.392 119.424 316.215 134.406 289.488 134.406C251.645 134.406 220.949 104.317 220.949 67.2185C220.949 30.1201 251.645 0 289.488 0C315.626 0 338.292 14.2985 349.935 35.3733L327.967 50.0448C321.331 35.7152 306.588 25.7684 289.488 25.7684C266.14 25.7684 247.242 44.3409 247.242 67.2185C247.242 90.0961 266.14 108.638 289.488 108.638C307.177 108.638 322.339 97.9603 328.633 82.8692L350.679 97.5407Z" fill="white"/>
<path d="M220.36 4.0874V24.4317H191.323V131.795H165.076V24.4317H133.915V4.0874H220.36Z" fill="white"/>
<path d="M511.043 117.838C511.461 117.807 511.849 117.419 512.066 116.813L512.175 116.844C511.647 116.61 510.671 116.129 509.539 115.491C509.539 115.631 509.539 115.756 509.539 115.896C509.601 116.579 509.88 117.201 510.314 117.559C510.485 117.698 510.733 117.854 511.058 117.838H511.043Z" fill="url(#paint0_linear_334_3)"/>
<path d="M571.118 94.8053C571.118 84.6409 568.311 76.668 562.684 70.9019C557.056 65.1359 549.196 62.2451 539.088 62.2451C528.98 62.2451 520.236 65.5245 514.252 72.0831C510.671 75.9997 508.19 80.9109 506.749 86.7702C507.043 86.5837 507.322 86.3972 507.663 86.2107L516.81 81.4082L508.904 88.0757C508.749 88.2156 505.074 91.3706 507.555 95.3027C508.547 96.8724 510.051 97.9292 511.787 98.2711C513.198 98.5509 514.655 98.3489 515.942 97.7272C515.058 96.0331 514.888 94.4479 515.43 92.9869C516.609 89.8785 520.686 88.7906 520.856 88.744L523.43 88.0757C523.973 87.6716 524.593 87.3141 525.29 87.0655C525.166 87.0655 525.027 87.081 524.903 87.0966L521.647 87.4074L524.004 85.1538C524.004 85.1538 525.368 83.8949 527.585 82.978C528.127 81.9056 528.732 80.9109 529.492 80.0716C531.833 77.4451 535.073 76.124 539.212 76.124C543.351 76.124 546.623 77.4295 549.057 80.0716C551.491 82.6982 552.746 86.4283 552.824 91.2618H552.591C555.862 92.0078 558.917 91.6192 561.227 89.1947L564.56 85.6512L563.118 90.2982C563.056 90.5158 561.397 95.7378 556.39 97.9603C552.855 99.53 548.623 99.1726 543.817 96.919C538.654 94.4945 534.98 93.7174 532.437 93.6552C531.879 95.3493 529.833 100.276 524.174 102.576C521.616 103.618 519.182 106.415 517.306 109.446L517.709 109.321L517.167 109.663C515.756 111.964 514.671 114.404 514.082 116.284L513.772 117.279L514.221 117.403C513.803 119.346 512.454 120.683 510.764 120.822C510.671 120.822 510.578 120.822 510.485 120.822C510.392 120.822 510.314 120.807 510.237 120.791C511.555 123.045 513.12 125.112 514.965 126.93C521.446 133.302 530.437 136.489 541.941 136.489C547.522 136.489 552.25 136.069 556.142 135.245C560.017 134.422 563.661 133.147 567.071 131.437V116.315C562.901 118.274 558.886 119.719 555.056 120.605C551.227 121.491 547.15 121.957 542.84 121.957C537.305 121.957 532.995 120.403 529.926 117.279C526.856 114.155 525.213 109.819 524.996 104.27H571.102V94.7898L571.118 94.8053Z" fill="white"/>
<path d="M108.148 83.6773H72.2739V63.3796H137.79C137.868 64.6852 137.914 66.0062 137.914 67.3117V131.873H117.171V115.429C113.745 118.709 109.946 121.646 105.885 124.164C100.49 127.505 94.5984 130.116 88.3351 131.873C83.2191 133.334 77.8395 134.188 72.3049 134.421C78.9868 128.92 87.622 120.589 95.4821 108.808C101.668 99.53 105.621 90.7489 108.179 83.6928L108.148 83.6773Z" fill="#65BC7B"/>
<path d="M69.8401 134.406L71.2819 133.209C80.1342 125.936 87.8237 117.419 94.149 107.923C97.3581 103.105 100.18 98.0225 102.645 92.7849C95.4823 101.706 84.6611 107.705 72.3516 108.529C71.3749 108.607 70.3827 108.638 69.4061 108.638C46.0584 108.638 27.1601 90.1117 27.1601 67.2185C27.1601 44.3254 46.0584 25.7684 69.4061 25.7684C83.4364 25.7684 95.9009 32.4669 103.559 42.8023L125.326 28.2862C112.877 11.1746 92.4902 0 69.4215 0C31.5785 0 0.882324 30.089 0.882324 67.2185C0.882324 104.348 31.5785 134.406 69.4215 134.406C69.5611 134.406 69.7006 134.406 69.8556 134.406H69.8401Z" fill="white"/>
</g>
</g>
<defs>
<linearGradient id="paint0_linear_334_3" x1="510.857" y1="115.491" x2="510.857" y2="117.839" gradientUnits="userSpaceOnUse">
<stop stop-color="#29336A"/>
<stop offset="1" stop-color="#293795"/>
</linearGradient>
<clipPath id="clip0_334_3">
<rect width="570.235" height="136.535" fill="white" transform="translate(0.882324)"/>
</clipPath>
</defs>
</svg>
