<svg version="1.2" xmlns="http://www.w3.org/2000/svg" viewBox="0 0 106 115" width="106" height="115">
	<title>circle3-svg</title>
	<style>
		.s0 { fill: none;stroke: #65bc7b } 
		.s1 { fill: #65bc7b } 
	</style>
	<path class="s0" d="m53 105.5c-29 0-52.5-23.5-52.5-52.5 0-29 23.5-52.5 52.5-52.5 29 0 52.5 23.5 52.5 52.5 0 29-23.5 52.5-52.5 52.5z"/>
	<g>
		<path class="s1" d="m77.5 11c-2.5 0-4.5-2-4.5-4.5 0-2.5 2-4.5 4.5-4.5 2.5 0 4.5 2 4.5 4.5 0 2.5-2 4.5-4.5 4.5z"/>
	</g>
	<g>
		<path class="s1" d="m39.5 109c-2.5 0-4.5-2-4.5-4.5 0-2.5 2-4.5 4.5-4.5 2.5 0 4.5 2 4.5 4.5 0 2.5-2 4.5-4.5 4.5z"/>
	</g>
</svg>