<svg version="1.2" xmlns="http://www.w3.org/2000/svg" viewBox="0 0 109 106" width="109" height="106">
	<title>circle2-svg</title>
	<style>
		.s0 { fill: none;stroke: #65bc7b } 
		.s1 { fill: #65bc7b } 
	</style>
	<path fill-rule="evenodd" class="s0" d="m108.5 53c0 29-23.7 52.5-53 52.5-29.3 0-53-23.5-53-52.5 0-29 23.7-52.5 53-52.5 29.3 0 53 23.5 53 52.5z"/>
	<g>
		<path class="s1" d="m84 14c-2.2 0-4-2-4-4.5 0-2.5 1.8-4.5 4-4.5 2.2 0 4 2 4 4.5 0 2.5-1.8 4.5-4 4.5z"/>
	</g>
	<g>
		<path class="s1" d="m10.9 78.4c-2.1 1-4.6 0.3-5.7-1.8-1-2-0.3-4.5 1.8-5.6 2-1.1 4.5-0.3 5.6 1.7 1.1 2.1 0.3 4.6-1.7 5.7z"/>
	</g>
</svg>