<svg version="1.2" xmlns="http://www.w3.org/2000/svg" viewBox="0 0 115 106" width="115" height="106">
	<title>circle1-svg</title>
	<style>
		.s0 { fill: none;stroke: #65bc7b } 
		.s1 { fill: #65bc7b } 
	</style>
	<path class="s0" d="m55 105.5c-29 0-52.5-23.5-52.5-52.5 0-29 23.5-52.5 52.5-52.5 29 0 52.5 23.5 52.5 52.5 0 29-23.5 52.5-52.5 52.5z"/>
	<g>
		<path class="s1" d="m10.2 32.3c-2 1.1-4.5 0.3-5.6-1.7-1.1-2.1-0.3-4.6 1.7-5.6 2-1.1 4.5-0.4 5.6 1.7 1.1 2 0.3 4.5-1.7 5.6z"/>
	</g>
	<g>
		<path class="s1" d="m106.5 61c-2.5 0-4.5-1.8-4.5-4 0-2.2 2-4 4.5-4 2.5 0 4.5 1.8 4.5 4 0 2.2-2 4-4.5 4z"/>
	</g>
</svg>